<?xml version="1.0" encoding="UTF-8"?>
<svg version="1.1" xmlns="http://www.w3.org/2000/svg" width="1024" height="1024">
<path d="M0 0 C337.92 0 675.84 0 1024 0 C1024 337.92 1024 675.84 1024 1024 C686.08 1024 348.16 1024 0 1024 C0 686.08 0 348.16 0 0 Z " fill="#FDFDFD" transform="translate(0,0)"/>
<path d="M0 0 C2.95709881 -0.00217594 5.91381683 -0.02037494 8.87084961 -0.03930664 C61.74302453 -0.19670355 115.52858087 11.73706787 163.42358398 34.18530273 C164.4082666 34.63873047 165.39294922 35.0921582 166.4074707 35.55932617 C180.51250406 42.06733509 194.19612021 49.03349366 207.42358398 57.18530273 C208.13385742 57.62165039 208.84413086 58.05799805 209.57592773 58.50756836 C225.31861253 68.25647867 240.27981432 79.23985665 254.42358398 91.18530273 C255.42953613 92.02359619 256.43548828 92.86188965 257.47192383 93.72558594 C265.82750732 100.73895095 273.68961785 108.13791677 281.37548828 115.87646484 C283.24541539 117.75718801 285.12591037 119.62687092 287.00756836 121.49584961 C293.94052762 128.42106871 300.35782426 135.48001739 306.42358398 143.18530273 C307.3515785 144.29028982 308.28435418 145.39130113 309.22436523 146.48608398 C323.32840196 163.39776721 336.19382166 182.61327051 346.35131836 202.1496582 C347.58653985 204.49466657 348.87225253 206.80900764 350.15795898 209.12670898 C365.14232961 236.52058793 376.48205572 266.399044 383.82641602 296.73657227 C384.22549415 298.37302103 384.63539487 300.00686727 385.0559082 301.63793945 C396.1442721 344.82464063 397.80543862 394.31186421 390.42358398 438.18530273 C390.15150428 440.03649247 389.88200181 441.8880627 389.61499023 443.73999023 C379.54108876 510.22773997 349.51609579 574.78850481 306.42358398 626.18530273 C305.61920898 627.16370117 304.81483398 628.14209961 303.98608398 629.15014648 C291.84273583 643.83341508 278.62491846 657.48813554 264.42358398 670.18530273 C263.84398926 670.70431152 263.26439453 671.22332031 262.66723633 671.75805664 C249.73359223 683.26232704 235.84350566 693.61756369 221.42358398 703.18530273 C220.43793457 703.84151611 220.43793457 703.84151611 219.43237305 704.51098633 C180.1444676 730.47132257 137.03886841 748.05296053 91.42358398 759.18530273 C90.53944824 759.40412109 89.6553125 759.62293945 88.74438477 759.84838867 C65.75762333 765.44295035 41.39588105 768.2968913 17.76733398 768.38842773 C16.58554565 768.39412781 15.40375732 768.39982788 14.18615723 768.40570068 C11.69190345 768.415093 9.19763759 768.42166151 6.70336914 768.42553711 C2.98877619 768.4351343 -0.72523619 768.46616927 -4.43969727 768.49780273 C-26.56901334 768.59662466 -48.49617445 766.8822452 -70.20141602 762.43530273 C-71.48081055 762.1792627 -72.76020508 761.92322266 -74.07836914 761.65942383 C-109.03706403 754.54481232 -143.10616753 742.80839052 -174.70336914 726.16674805 C-176.6784483 725.13183952 -178.6654417 724.12266307 -180.65454102 723.11499023 C-202.511768 711.93534826 -223.8569542 698.08775816 -242.57641602 682.18530273 C-243.36773926 681.51700439 -243.36773926 681.51700439 -244.17504883 680.83520508 C-255.55040233 671.21843687 -266.59780255 661.34367108 -277.13891602 650.81030273 C-278.01999023 649.94147461 -278.90106445 649.07264648 -279.80883789 648.17749023 C-285.83785412 642.16182238 -291.26587966 635.83739882 -296.57641602 629.18530273 C-297.43999528 628.15791323 -298.30839097 627.13450838 -299.18579102 626.11889648 C-338.16533181 580.66647574 -367.59229684 521.23083604 -378.57641602 462.18530273 C-378.77041992 461.14857422 -378.96442383 460.1118457 -379.16430664 459.04370117 C-397.48673498 359.21137635 -378.72459168 256.87815623 -320.78735352 172.29467773 C-312.17416037 160.18142376 -303.38203051 148.36176794 -293.57641602 137.18530273 C-292.97829102 136.48791992 -292.38016602 135.79053711 -291.76391602 135.07202148 C-281.44074183 123.08622068 -270.64445027 111.21552108 -258.60375977 100.93920898 C-257.19800025 99.72305094 -255.81646868 98.47853772 -254.45532227 97.21264648 C-246.61980774 89.93209252 -238.1391214 83.57308836 -229.57641602 77.18530273 C-228.86453125 76.64856934 -228.15264648 76.11183594 -227.41918945 75.55883789 C-175.98919635 36.86265664 -114.22432885 12.08496268 -50.57641602 3.18530273 C-49.8092627 3.07492676 -49.04210937 2.96455078 -48.25170898 2.85083008 C-32.18250057 0.56448741 -16.20461173 -0.00132727 0 0 Z " fill="#19B2D5" transform="translate(509.576416015625,114.814697265625)"/>
<path d="M0 0 C0.95067856 -0.00701431 1.90135712 -0.01402863 2.88084412 -0.02125549 C5.94535092 -0.03870281 9.00966404 -0.04511143 12.07421875 -0.046875 C13.12428101 -0.04754974 14.17434326 -0.04822449 15.25622559 -0.04891968 C46.91522491 -0.0166515 78.22184159 3.48943438 108.76171875 12.203125 C109.60589355 12.44256836 110.45006836 12.68201172 111.31982422 12.92871094 C149.16455911 23.78324785 187.23990833 39.80964045 217.76171875 65.203125 C218.77492188 66.01523437 219.788125 66.82734375 220.83203125 67.6640625 C235.05423888 79.20092747 248.0887945 92.30506056 258.76171875 107.203125 C259.17437988 107.77144043 259.58704102 108.33975586 260.01220703 108.92529297 C272.20053371 125.87119788 281.06035825 144.14484691 286.76171875 164.203125 C287.09623047 165.27771973 287.09623047 165.27771973 287.4375 166.37402344 C297.42892246 198.87679498 291.17099636 239.17725703 276.76171875 269.203125 C276.34229004 270.07936523 275.92286133 270.95560547 275.49072266 271.85839844 C267.26087875 288.77580169 257.18532147 303.15529606 244.76171875 317.203125 C244.29056641 317.73744141 243.81941406 318.27175781 243.33398438 318.82226562 C237.81625841 325.04758538 232.16616536 330.87756366 225.76171875 336.203125 C224.87742187 336.986875 223.993125 337.770625 223.08203125 338.578125 C180.19194761 376.3933741 124.58627899 397.35188825 68.69921875 405.953125 C67.65254028 406.11430817 67.65254028 406.11430817 66.5847168 406.27874756 C64.54960012 406.58838959 62.51343581 406.88965051 60.4765625 407.1875 C58.71493774 407.44611816 58.71493774 407.44611816 56.91772461 407.70996094 C46.8551103 408.99547621 36.79098812 409.36105301 26.65625 409.37109375 C25.45215988 409.37442215 24.24806976 409.37775055 23.00749207 409.38117981 C20.4772479 409.38620657 17.9469972 409.38858946 15.41674805 409.38842773 C11.6012854 409.39060952 7.78611466 409.40879872 3.97070312 409.42773438 C-16.09215788 409.47597243 -34.70728897 407.54888666 -54.36914062 403.70703125 C-55.58021484 403.48402344 -56.79128906 403.26101563 -58.0390625 403.03125 C-59.65035034 402.7204248 -59.65035034 402.7204248 -61.29418945 402.40332031 C-66.09830991 402.0766449 -69.26961697 404.02357132 -73.05859375 406.77734375 C-73.75267334 407.27637207 -74.44675293 407.77540039 -75.16186523 408.28955078 C-75.88833252 408.81790527 -76.6147998 409.34625977 -77.36328125 409.890625 C-78.89723981 410.98735419 -80.43239374 412.08241342 -81.96875 413.17578125 C-82.70786621 413.70187988 -83.44698242 414.22797852 -84.20849609 414.77001953 C-94.06627347 421.72998504 -104.63053848 427.48519674 -115.23828125 433.203125 C-115.88361816 433.5552002 -116.52895508 433.90727539 -117.19384766 434.27001953 C-165.68121792 460.53454637 -165.68121792 460.53454637 -186.23828125 456.203125 C-190.81730882 454.25818687 -194.74349075 451.60569647 -197.23828125 447.203125 C-198.78806436 442.55377568 -199.31322405 437.81011245 -197.40234375 433.17578125 C-196.57712215 431.73302806 -195.72676502 430.30452057 -194.859375 428.88671875 C-185.59759712 413.55457079 -178.29867515 396.07488409 -176.23828125 378.203125 C-176.11501465 377.25276367 -175.99174805 376.30240234 -175.86474609 375.32324219 C-174.12522961 362.72527576 -174.12522961 362.72527576 -177.66064453 350.95410156 C-181.3222068 347.02738141 -185.66277615 344.2204495 -190.23828125 341.46289062 C-192.97484096 339.7391787 -195.26381264 337.66704735 -197.61328125 335.453125 C-199.99972234 333.25920352 -202.38539395 331.07381717 -204.8203125 328.93359375 C-210.06783747 324.31545708 -214.77284773 319.57307064 -219.23828125 314.203125 C-220.37716797 312.89601563 -220.37716797 312.89601563 -221.5390625 311.5625 C-249.97294677 278.48544645 -266.08092215 236.02139448 -263.23828125 192.203125 C-259.60318249 146.24096924 -234.11378221 103.82537321 -199.6328125 73.9453125 C-196.86667401 71.65416749 -194.06464264 69.41950759 -191.23828125 67.203125 C-190.72362305 66.79562012 -190.20896484 66.38811523 -189.67871094 65.96826172 C-170.87370808 51.09479781 -150.71307489 39.49892752 -128.9765625 29.46801758 C-127.16694098 28.63210022 -125.36210245 27.78574092 -123.5625 26.9284668 C-116.53219253 23.6256763 -109.36765835 21.051455 -101.98828125 18.640625 C-100.19233521 18.05039551 -100.19233521 18.05039551 -98.36010742 17.44824219 C-90.04243697 14.73877078 -81.76825564 12.16562163 -73.23828125 10.203125 C-72.4198877 10.01298828 -71.60149414 9.82285156 -70.75830078 9.62695312 C-47.70770861 4.34272525 -23.70779155 0.11783774 0 0 Z " fill="#F7F8FD" transform="translate(504.23828125,268.796875)"/>
<path d="M0 0 C9.41256045 5.90873084 14.82324377 12.99316881 18.30859375 23.44921875 C19.67835053 33.98700668 16.98802622 41.79950838 11.30859375 50.44921875 C5.50494146 57.78615035 -3.48215675 61.4939496 -12.5859375 62.89453125 C-22.43134561 63.31708095 -31.17585014 59.76426551 -38.68359375 53.5078125 C-45.14254829 46.88549919 -48.69306414 38.8694344 -49.06640625 29.69921875 C-48.82612874 19.45580924 -44.99635393 12.91154489 -38 5.58203125 C-35.02088167 2.82974935 -32.37216777 1.14803176 -28.69140625 -0.55078125 C-27.95792969 -0.90398437 -27.22445312 -1.2571875 -26.46875 -1.62109375 C-18.50079943 -4.28828396 -7.55440965 -3.63070278 0 0 Z " fill="#0D9EC0" transform="translate(647.69140625,426.55078125)"/>
<path d="M0 0 C1.12039673 0.01244751 1.12039673 0.01244751 2.26342773 0.02514648 C11.42837531 0.30431725 18.17653171 3.12424657 24.8671875 9.44921875 C31.69501477 16.90708158 35.24832491 24.54545055 35 34.7578125 C33.93549736 43.88592266 29.70779502 52.45496914 22.4765625 58.19140625 C16.83593751 62.07987696 11.55699589 64.65982122 4.6875 65.4375 C3.99011719 65.53804688 3.29273438 65.63859375 2.57421875 65.7421875 C-5.79599779 66.42714794 -12.48204427 62.85290174 -19.3125 58.4375 C-26.17120016 52.60548798 -30.44219401 45.22968608 -32.3125 36.4375 C-32.94087766 27.3260239 -30.88244502 19.45588575 -25.046875 12.3203125 C-17.81785 4.47258716 -10.92430562 -0.15682003 0 0 Z " fill="#15B5C9" transform="translate(515.3125,423.5625)"/>
<path d="M0 0 C6.7569005 4.91618818 11.76680962 11.51435783 14.37109375 19.4921875 C15.59292281 31.12797823 13.46546448 40.51118968 6.140625 49.671875 C-0.17174152 56.16539112 -7.62256075 59.66289872 -16.69335938 59.92407227 C-27.56794367 59.95201188 -34.20617339 57.84274491 -42.44140625 50.4296875 C-48.72597359 43.68826331 -51.81045302 36.18733746 -52.31640625 26.9921875 C-52.02510374 19.85527595 -49.38460593 14.46347979 -45.62890625 8.4921875 C-45.24605469 7.87472656 -44.86320312 7.25726563 -44.46875 6.62109375 C-34.05005285 -7.75596146 -14.25643809 -8.17679807 0 0 Z " fill="#18BCCC" transform="translate(419.62890625,428.5078125)"/>
<path d="M0 0 C0.66 0.33 1.32 0.66 2 1 C0.58972554 2.46451579 -0.82848796 3.9213893 -2.25 5.375 C-3.03890625 6.18710938 -3.8278125 6.99921875 -4.640625 7.8359375 C-7 10 -7 10 -8.81445312 10.84106445 C-19.7033361 16.61514036 -29.11580329 28.99393478 -37.75 37.6875 C-39.04403305 38.98656504 -40.33830264 40.28539449 -41.6328125 41.58398438 C-44.75793104 44.71995793 -47.87986926 47.85906413 -51 51 C-51 46.82252779 -48.67424701 44.93046229 -46 42 C-45.1646875 41.071875 -45.1646875 41.071875 -44.3125 40.125 C-43 39 -43 39 -41 39 C-40.34 37.68 -39.68 36.36 -39 35 C-38.34 35 -37.68 35 -37 35 C-36.73832031 34.40058594 -36.47664063 33.80117188 -36.20703125 33.18359375 C-34.92779812 30.86938236 -33.73749558 29.70340555 -31.6875 28.0625 C-27.96579886 24.99171367 -24.6060937 21.67482293 -21.265625 18.19140625 C-16.18522945 12.97892042 -10.74410546 8.46034943 -5 4 C-3.33151866 2.66893818 -1.66435687 1.33621546 0 0 Z " fill="#ABFCFC" transform="translate(303,231)"/>
<path d="M0 0 C0 3 0 3 -1.95263672 5.32495117 C-3.30252686 6.67036987 -3.30252686 6.67036987 -4.6796875 8.04296875 C-5.40987595 8.77390495 -5.40987595 8.77390495 -6.15481567 9.51960754 C-7.19207236 10.55452012 -8.23303246 11.58573193 -9.27734375 12.61352539 C-10.84275245 14.15573044 -12.39482247 15.71039212 -13.9453125 17.26757812 C-30.72371271 34 -30.72371271 34 -35 34 C-35.33 34.99 -35.66 35.98 -36 37 C-39.0625 38.6875 -39.0625 38.6875 -42 40 C-41.1875 38.0625 -41.1875 38.0625 -40 36 C-38.515 35.505 -38.515 35.505 -37 35 C-35.62150897 33.71340837 -34.29470975 32.37086915 -33 31 C-29.69682113 27.58990392 -26.29395949 24.55723909 -22.5625 21.625 C-18.75183743 18.54794092 -15.51922926 15.50841158 -12.46875 11.6953125 C-10.16965378 9.04156845 -7.51024228 6.8390211 -4.83203125 4.578125 C-3.13809049 3.11895215 -1.55835516 1.60177682 0 0 Z " fill="#4DDAFC" transform="translate(779,742)"/>
<path d="M0 0 C0.66 0.33 1.32 0.66 2 1 C-9.88 12.88 -21.76 24.76 -34 37 C-34.66 36.67 -35.32 36.34 -36 36 C-35.57589844 35.5875 -35.15179688 35.175 -34.71484375 34.75 C-31.61832867 31.70112362 -28.62972143 28.62238824 -25.8125 25.3125 C-18.9970517 17.42254408 -11.47246125 10.0462646 -3.5234375 3.3046875 C-2.30041699 2.25728019 -1.13860468 1.13860468 0 0 Z " fill="#38DEDE" transform="translate(255,212)"/>
<path d="M0 0 C0.99 0.33 1.98 0.66 3 1 C2.11183594 1.67160156 1.22367187 2.34320313 0.30859375 3.03515625 C-12.87472403 13.26171446 -24.3758543 25.07791681 -36 37 C-36 34 -36 34 -34.70239258 32.36181641 C-34.10579834 31.78093262 -33.5092041 31.20004883 -32.89453125 30.6015625 C-32.24033203 29.95703125 -31.58613281 29.3125 -30.91210938 28.6484375 C-30.21923828 27.98070312 -29.52636719 27.31296875 -28.8125 26.625 C-27.80219727 25.635 -27.80219727 25.635 -26.77148438 24.625 C-25.45235716 23.33289881 -24.13055728 22.04351971 -22.8059082 20.75708008 C-19.91461547 17.94396208 -17.0571202 15.09988012 -14.26171875 12.19140625 C-10.63035711 8.43389309 -6.83826069 5.22299131 -2.6015625 2.1640625 C-1.04267351 1.09475655 -1.04267351 1.09475655 0 0 Z " fill="#B8FDFD" transform="translate(283,230)"/>
<path d="M0 0 C0.66 0.33 1.32 0.66 2 1 C-0.99571324 4.02510958 -3.99734805 7.04427875 -7 10.0625 C-7.83917969 10.91005859 -8.67835938 11.75761719 -9.54296875 12.63085938 C-16.3800541 19.49444506 -23.53177931 25.83871793 -31 32 C-27.47840893 24.44668085 -21.26130716 19.28628184 -15 14 C-10.51167726 10.13390315 -6.1286117 6.25004146 -2 2 C-1.34 1.34 -0.68 0.68 0 0 Z " fill="#89FAFA" transform="translate(279,223)"/>
<path d="M0 0 C0.66 0.33 1.32 0.66 2 1 C-1.34618176 5.30059099 -3.72630093 8.19187461 -9 10 C-9.33 10.99 -9.66 11.98 -10 13 C-13.0625 14.6875 -13.0625 14.6875 -16 16 C-15.1875 14.0625 -15.1875 14.0625 -14 12 C-13.01 11.67 -12.02 11.34 -11 11 C-9.62150897 9.71340837 -8.29470975 8.37086915 -7 7 C-4.66666667 4.66666667 -2.33333333 2.33333333 0 0 Z " fill="#5DDDFA" transform="translate(753,766)"/>
<path d="M0 0 C0.99 0.33 1.98 0.66 3 1 C-1.95 5.95 -6.9 10.9 -12 16 C-12 11.82252779 -9.67424701 9.93046229 -7 7 C-6.443125 6.38125 -5.88625 5.7625 -5.3125 5.125 C-4 4 -4 4 -2 4 C-1.34 2.68 -0.68 1.36 0 0 Z " fill="#71FBFB" transform="translate(264,266)"/>
<path d="M0 0 C-2.9286507 1.23063034 -5.8689431 2.43051314 -8.8125 3.625 C-9.64587891 3.975625 -10.47925781 4.32625 -11.33789062 4.6875 C-12.14033203 5.00976562 -12.94277344 5.33203125 -13.76953125 5.6640625 C-14.50792236 5.96779785 -15.24631348 6.2715332 -16.00708008 6.58447266 C-16.66474365 6.72159668 -17.32240723 6.8587207 -18 7 C-18.99 6.34 -19.98 5.68 -21 5 C-18.25435036 3.96588523 -15.5045139 2.94748843 -12.75 1.9375 C-11.97269531 1.64294922 -11.19539063 1.34839844 -10.39453125 1.04492188 C-9.26337891 0.6340332 -9.26337891 0.6340332 -8.109375 0.21484375 C-7.41811523 -0.04176025 -6.72685547 -0.29836426 -6.01464844 -0.56274414 C-3.67968529 -1.06952056 -2.24624397 -0.74214139 0 0 Z " fill="#31D9D9" transform="translate(389,137)"/>
<path d="M0 0 C0.66 0.33 1.32 0.66 2 1 C-2.33333333 5.33333333 -6.66666667 9.66666667 -11 14 C-10.50557747 9.64908177 -9.21609965 7.73822101 -6.0625 4.75 C-5.35222656 4.06421875 -4.64195312 3.3784375 -3.91015625 2.671875 C-2 1 -2 1 0 0 Z " fill="#0F8BAD" transform="translate(615,428)"/>
<path d="M0 0 C0.66 0.33 1.32 0.66 2 1 C-2 5 -6 9 -10 13 C-8.16490101 7.32787586 -4.97304587 3.31536392 0 0 Z " fill="#21ACBC" transform="translate(382,429)"/>
<path d="M0 0 C0 3 0 3 -2.1875 5.48046875 C-3.115625 6.37378906 -4.04375 7.26710937 -5 8.1875 C-5.928125 9.08855469 -6.85625 9.98960937 -7.8125 10.91796875 C-8.534375 11.60503906 -9.25625 12.29210937 -10 13 C-10 10 -10 10 -7.8125 7.625 C-6.884375 6.75875 -5.95625 5.8925 -5 5 C-4.071875 4.071875 -3.14375 3.14375 -2.1875 2.1875 C-1.1046875 1.1046875 -1.1046875 1.1046875 0 0 Z " fill="#70F8F7" transform="translate(259,242)"/>
<path d="M0 0 C-5.445 3.96 -5.445 3.96 -11 8 C-11 5 -11 5 -9.609375 3.359375 C-8.99578125 2.82828125 -8.3821875 2.2971875 -7.75 1.75 C-6.84507812 0.93789063 -6.84507812 0.93789063 -5.921875 0.109375 C-4 -1 -4 -1 0 0 Z " fill="#68E1FB" transform="translate(736,784)"/>
<path d="M0 0 C0.70703125 1.64453125 0.70703125 1.64453125 1 4 C-0.36328125 6.76171875 -0.36328125 6.76171875 -2.3125 9.6875 C-2.94800781 10.66074219 -3.58351563 11.63398437 -4.23828125 12.63671875 C-6 15 -6 15 -8 16 C-6.57250019 12.20950293 -4.83763458 8.72877544 -2.875 5.1875 C-2.33617187 4.21167969 -1.79734375 3.23585938 -1.2421875 2.23046875 C-0.83226562 1.49441406 -0.42234375 0.75835938 0 0 Z " fill="#1D81BC" transform="translate(776,546)"/>
<path d="M0 0 C0.66 0.33 1.32 0.66 2 1 C-0.97 3.97 -3.94 6.94 -7 10 C-7.33 9.01 -7.66 8.02 -8 7 C-5.36 4.69 -2.72 2.38 0 0 Z " fill="#83FCFB" transform="translate(303,231)"/>
<path d="M0 0 C0.66 0.33 1.32 0.66 2 1 C0.78192862 2.15762119 -0.45001235 3.3006583 -1.6875 4.4375 C-2.71423828 5.39462891 -2.71423828 5.39462891 -3.76171875 6.37109375 C-6.22289422 8.16221098 -8.00816574 8.62798558 -11 9 C-7.67149253 5.40521193 -4.01028669 2.77635232 0 0 Z " fill="#1C82A8" transform="translate(432,674)"/>
<path d="M0 0 C0.66 0.33 1.32 0.66 2 1 C-1.56430755 4.14985318 -4.40693504 6.5140084 -9 8 C-6.14723863 5.06799526 -3.34920216 2.35684596 0 0 Z " fill="#2EDBDA" transform="translate(288,186)"/>
</svg>
